<svg width="31" height="24" viewBox="0 0 31 24" fill="none" xmlns="http://www.w3.org/2000/svg">
<path d="M25.6573 0H5.34271C4.11511 0.000759713 2.92517 0.43257 1.9728 1.22289C1.02042 2.01321 0.363646 3.11387 0.112803 4.33998C-0.13804 5.56609 0.0323361 6.84292 0.595308 7.95598C1.15828 9.06904 2.07955 9.9505 3.20433 10.4523V21.8182C3.20433 22.3968 3.42962 22.9518 3.83065 23.361C4.23167 23.7701 4.77557 24 5.34271 24H25.6573C26.2244 24 26.7683 23.7701 27.1694 23.361C27.5704 22.9518 27.7957 22.3968 27.7957 21.8182V10.4523C28.9205 9.9505 29.8417 9.06904 30.4047 7.95598C30.9677 6.84292 31.138 5.56609 30.8872 4.33998C30.6364 3.11387 29.9796 2.01321 29.0272 1.22289C28.0748 0.43257 26.8849 0.000759713 25.6573 0ZM18.173 8.72727C17.8894 8.72727 17.6175 8.84221 17.4169 9.04679C17.2164 9.25138 17.1038 9.52886 17.1038 9.81818C17.1038 10.1075 17.2164 10.385 17.4169 10.5896C17.6175 10.7942 17.8894 10.9091 18.173 10.9091V21.8182H5.34271V10.9091C5.62627 10.9091 5.89823 10.7942 6.09874 10.5896C6.29925 10.385 6.4119 10.1075 6.4119 9.81818C6.4119 9.52886 6.29925 9.25138 6.09874 9.04679C5.89823 8.84221 5.62627 8.72727 5.34271 8.72727C4.49201 8.72727 3.67615 8.38247 3.07462 7.76871C2.47308 7.15496 2.13514 6.32253 2.13514 5.45455C2.13514 4.58656 2.47308 3.75413 3.07462 3.14038C3.67615 2.52662 4.49201 2.18182 5.34271 2.18182H18.173C19.0237 2.18182 19.8395 2.52662 20.4411 3.14038C21.0426 3.75413 21.3805 4.58656 21.3805 5.45455C21.3805 6.32253 21.0426 7.15496 20.4411 7.76871C19.8395 8.38247 19.0237 8.72727 18.173 8.72727Z" fill="#FFE6AF"/>
</svg>
