<svg width="22" height="22" viewBox="0 0 22 22" fill="none" xmlns="http://www.w3.org/2000/svg">
<path d="M0.986574 21.9999C0.830013 22.0026 0.675126 21.9673 0.535152 21.8972C0.395177 21.8271 0.274276 21.7242 0.182784 21.5972C0.0912907 21.4703 0.0319263 21.3231 0.00976376 21.1682C-0.0123987 21.0134 0.00329978 20.8555 0.0555178 20.708L2.12453 13.9258C1.67421 12.7597 1.44615 11.5198 1.4521 10.2699C1.45004 8.89499 1.72261 7.53351 2.25385 6.26517C2.77495 5.05144 3.5208 3.94694 4.45217 3.00971C5.38818 2.07063 6.49978 1.32445 7.7238 0.813573C8.98968 0.276692 10.3508 0 11.7261 0C13.1013 0 14.4624 0.276692 15.7283 0.813573C17.5828 1.60715 19.1646 2.92513 20.2789 4.60528C21.3932 6.28544 21.9915 8.25443 22 10.2699C21.9919 12.9919 20.9092 15.6008 18.987 17.5301C18.0488 18.4605 16.9432 19.2056 15.7283 19.7262C13.2832 20.7492 10.5383 20.7954 8.06002 19.8554L1.27106 21.9223C1.18026 21.9611 1.08452 21.9872 0.986574 21.9999ZM11.7196 1.97624C10.0818 1.98331 8.4818 2.469 7.11692 3.37342C5.75203 4.27785 4.68188 5.56148 4.03837 7.06611C3.1834 9.13448 3.1834 11.457 4.03837 13.5253C4.11541 13.7382 4.11541 13.9713 4.03837 14.1842L2.44782 19.5712L7.81432 17.9435C8.0274 17.8665 8.26074 17.8665 8.47382 17.9435C9.49853 18.3685 10.5971 18.5872 11.7067 18.5872C12.8162 18.5872 13.9148 18.3685 14.9395 17.9435C15.9491 17.5188 16.865 16.8994 17.6346 16.1205C18.4042 15.3417 19.0125 14.4189 19.4245 13.4048C19.8365 12.3908 20.0442 11.3055 20.0357 10.2112C20.0272 9.1168 19.8027 8.03487 19.3749 7.02736C18.7328 5.53004 17.6655 4.25358 16.3049 3.35584C14.9443 2.4581 13.3502 1.97846 11.7196 1.97624Z" fill="#FFE6AF"/>
</svg>
