<svg width="12" height="12" viewBox="0 0 12 12" fill="none" xmlns="http://www.w3.org/2000/svg">
<path d="M0.292893 11.6066C-0.0976311 11.2161 -0.0976311 10.5829 0.292893 10.1924L10.1924 0.292893C10.5829 -0.0976311 11.2161 -0.0976311 11.6066 0.292893C11.9971 0.683417 11.9971 1.31658 11.6066 1.70711L1.70711 11.6066C1.31658 11.9971 0.683417 11.9971 0.292893 11.6066Z" fill="#A3A3A3"/>
<path d="M0.292893 1.70711C-0.0976311 1.31658 -0.0976311 0.683417 0.292893 0.292893C0.683417 -0.0976311 1.31658 -0.0976311 1.70711 0.292893L11.6066 10.1924C11.9971 10.5829 11.9971 11.2161 11.6066 11.6066C11.2161 11.9971 10.5829 11.9971 10.1924 11.6066L0.292893 1.70711Z" fill="#A3A3A3"/>
</svg>
