<svg width="28" height="30" viewBox="0 0 28 30" fill="none" xmlns="http://www.w3.org/2000/svg">
<path fill-rule="evenodd" clip-rule="evenodd" d="M9.84884 9.76744H18.3605C19.287 9.76744 20.0865 9.76744 20.727 9.85395C21.4135 9.94605 22.0707 10.154 22.6037 10.687C23.1367 11.22 23.3447 11.8786 23.4367 12.5637C23.5233 13.2042 23.5233 14.0037 23.5233 14.9316V20.6498C23.5233 21.5777 23.5233 22.3772 23.4367 23.0177C23.3447 23.7042 23.1367 24.3614 22.6037 24.8944C22.0707 25.4274 21.4121 25.6353 20.727 25.7274C20.0865 25.814 19.287 25.814 18.3605 25.814H9.84884C8.92233 25.814 8.12279 25.814 7.48233 25.7274C6.79721 25.6353 6.1386 25.4274 5.60558 24.8944C5.07256 24.3614 4.86465 23.7028 4.77256 23.0177C4.68605 22.3772 4.68605 21.5777 4.68605 20.6498V14.9316C4.68605 14.0037 4.68605 13.2042 4.77256 12.5637C4.86465 11.8786 5.07256 11.22 5.60558 10.687C6.1386 10.154 6.79721 9.94605 7.48233 9.85395C8.12279 9.76744 8.92233 9.76744 9.85023 9.76744H9.84884ZM7.76279 11.9274C7.3093 11.9888 7.16698 12.0879 7.08744 12.1674C7.00791 12.247 6.90884 12.3893 6.84744 12.8428C6.78326 13.327 6.78047 13.9842 6.78047 15V20.5814C6.78047 21.5972 6.78326 22.2558 6.84744 22.7386C6.90884 23.1921 7.00791 23.3344 7.08744 23.414C7.16698 23.4935 7.3093 23.5926 7.76279 23.654C8.24698 23.7181 8.90419 23.7209 9.92 23.7209H18.2921C19.3079 23.7209 19.9665 23.7181 20.4493 23.654C20.9028 23.5926 21.0451 23.4935 21.1247 23.414C21.2042 23.3344 21.3033 23.1921 21.3647 22.7386C21.4288 22.2544 21.4316 21.5972 21.4316 20.5814V15C21.4316 13.9842 21.4288 13.3256 21.3647 12.8428C21.3033 12.3893 21.2042 12.247 21.1247 12.1674C21.0451 12.0879 20.9028 11.9888 20.4493 11.9274C19.9651 11.8633 19.3079 11.8605 18.2921 11.8605H9.91861C8.90279 11.8605 8.24558 11.8633 7.76279 11.9274Z" fill="#A3A3A3"/>
<path d="M7.12791 5.5814C6.85036 5.5814 6.58417 5.69165 6.38791 5.88791C6.19165 6.08417 6.0814 6.35036 6.0814 6.62791C6.0814 6.90546 6.19165 7.17164 6.38791 7.3679C6.58417 7.56416 6.85036 7.67442 7.12791 7.67442H14.1047C14.3822 7.67442 14.6484 7.56416 14.8446 7.3679C15.0409 7.17164 15.1512 6.90546 15.1512 6.62791C15.1512 6.35036 15.0409 6.08417 14.8446 5.88791C14.6484 5.69165 14.3822 5.5814 14.1047 5.5814H7.12791Z" fill="#A3A3A3"/>
<path fill-rule="evenodd" clip-rule="evenodd" d="M12.6312 0H15.5781C18.1428 0 20.1744 0 21.7637 0.213488C23.3991 0.433954 24.7233 0.897209 25.7684 1.94093C26.8121 2.98605 27.2753 4.31023 27.4958 5.94558C27.7093 7.53628 27.7093 9.56651 27.7093 12.1312V17.8688C27.7093 20.4335 27.7093 22.4651 27.4958 24.0544C27.2753 25.6898 26.8121 27.014 25.7684 28.0591C24.7233 29.1028 23.3991 29.566 21.7637 29.7865C20.173 30 18.1428 30 15.5781 30H12.6312C10.0665 30 8.03488 30 6.44558 29.7865C4.81023 29.566 3.48605 29.1028 2.44093 28.0591C1.39721 27.014 0.933954 25.6898 0.713489 24.0544C0.5 22.4637 0.5 20.4335 0.5 17.8688V12.1312C0.5 9.56651 0.5 7.53488 0.713489 5.94558C0.933954 4.31023 1.39721 2.98605 2.44093 1.94093C3.48605 0.897209 4.81023 0.433954 6.44558 0.213488C8.03628 0 10.0665 0 12.6312 0ZM6.72326 2.28837C5.31953 2.47674 4.51023 2.83116 3.9186 3.4214C3.32977 4.01163 2.97535 4.82093 2.78698 6.22465C2.59442 7.65907 2.59163 9.54837 2.59163 12.2093V17.7907C2.59163 20.4516 2.59442 22.3423 2.78698 23.7767C2.97535 25.1791 3.32977 25.9884 3.92 26.5786C4.51023 27.1688 5.31953 27.5233 6.72326 27.7116C8.15767 27.9042 10.047 27.907 12.7079 27.907H15.4986C18.1595 27.907 20.0502 27.9042 21.4847 27.7116C22.887 27.5233 23.6963 27.1688 24.2865 26.5786C24.8767 25.9884 25.2312 25.1791 25.4195 23.7753C25.6121 22.3423 25.6149 20.4516 25.6149 17.7907V12.2093C25.6149 9.54837 25.6121 7.65907 25.4195 6.22326C25.2312 4.82093 24.8767 4.01163 24.2865 3.4214C23.6963 2.83116 22.887 2.47674 21.4833 2.28837C20.0502 2.09581 18.1595 2.09302 15.4986 2.09302H12.7079C10.047 2.09302 8.15907 2.09581 6.72326 2.28837Z" fill="#A3A3A3"/>
</svg>
