<svg width="24" height="20" viewBox="0 0 24 20" fill="none" xmlns="http://www.w3.org/2000/svg">
<path d="M20.9897 2.11873C19.7945 0.92039 18.2101 0.188989 16.5228 0.0566496C14.8354 -0.0756902 13.1564 0.399756 11.789 1.39711C10.3543 0.330042 8.56868 -0.153816 6.79159 0.0429696C5.0145 0.239755 3.37798 1.10257 2.21157 2.45766C1.04517 3.81275 0.435523 5.55945 0.505407 7.34604C0.575291 9.13262 1.31951 10.8264 2.5882 12.0862L9.59025 19.0995C10.1766 19.6766 10.9663 20 11.789 20C12.6116 20 13.4013 19.6766 13.9877 19.0995L20.9897 12.0862C22.3062 10.7617 23.0451 8.96999 23.0451 7.10247C23.0451 5.23495 22.3062 3.4433 20.9897 2.11873ZM19.3999 10.5302L12.3978 17.5322C12.3181 17.6127 12.2233 17.6766 12.1188 17.7201C12.0143 17.7637 11.9022 17.7862 11.789 17.7862C11.6757 17.7862 11.5636 17.7637 11.4591 17.7201C11.3546 17.6766 11.2598 17.6127 11.1801 17.5322L4.17804 10.4964C3.29377 9.59248 2.79861 8.37825 2.79861 7.11375C2.79861 5.84925 3.29377 4.63502 4.17804 3.73112C5.07912 2.84148 6.29441 2.34263 7.56067 2.34263C8.82693 2.34263 10.0422 2.84148 10.9433 3.73112C11.0481 3.8368 11.1728 3.92069 11.3102 3.97793C11.4476 4.03517 11.595 4.06465 11.7439 4.06465C11.8927 4.06465 12.0401 4.03517 12.1775 3.97793C12.3149 3.92069 12.4396 3.8368 12.5444 3.73112C13.4455 2.84148 14.6608 2.34263 15.927 2.34263C17.1933 2.34263 18.4086 2.84148 19.3097 3.73112C20.2061 4.62318 20.7175 5.83082 20.7344 7.09535C20.7512 8.35989 20.2722 9.58074 19.3999 10.4964V10.5302Z" fill="#FFE6AF"/>
</svg>
