<svg width="30" height="30" viewBox="0 0 30 30" fill="none" xmlns="http://www.w3.org/2000/svg">
<mask id="mask0_12_289" style="mask-type:alpha" maskUnits="userSpaceOnUse" x="0" y="0" width="30" height="30">
<circle cx="15" cy="15" r="14.25" fill="#292929" stroke="#A3A3A3" stroke-width="1.5"/>
</mask>
<g mask="url(#mask0_12_289)">
<path d="M22.1734 21.8369C24.0013 24.3296 25.1 27.6849 25.2357 31.25L4.76426 31.25C4.89995 27.6849 5.99868 24.3296 7.82663 21.8369C9.7795 19.1739 12.3699 17.75 15 17.75C17.6301 17.75 20.2205 19.1739 22.1734 21.8369Z" stroke="#A3A3A3" stroke-width="1.5"/>
<path d="M24 13C24 14.1819 23.7672 15.3522 23.3149 16.4442C22.8626 17.5361 22.1997 18.5282 21.364 19.364C20.5282 20.1997 19.5361 20.8626 18.4442 21.3149C17.3522 21.7672 16.1819 22 15 22C13.8181 22 12.6478 21.7672 11.5558 21.3149C10.4639 20.8626 9.47177 20.1997 8.63604 19.364C7.80031 18.5282 7.13738 17.5361 6.68508 16.4441C6.23279 15.3522 6 14.1819 6 13L15 13H24Z" fill="#292929"/>
<circle cx="15" cy="13" r="6.25" fill="#292929" stroke="#A3A3A3" stroke-width="1.5"/>
</g>
<circle cx="15" cy="15" r="14.25" stroke="#A3A3A3" stroke-width="1.5"/>
</svg>
