<svg width="30" height="30" viewBox="0 0 30 30" fill="none" xmlns="http://www.w3.org/2000/svg">
<mask id="mask0_12_103" style="mask-type:alpha" maskUnits="userSpaceOnUse" x="0" y="0" width="30" height="30">
<circle cx="15" cy="15" r="14.25" fill="#292929" stroke="#A3A3A3" stroke-width="1.5"/>
</mask>
<g mask="url(#mask0_12_103)">
<path fill-rule="evenodd" clip-rule="evenodd" d="M8.84589 19.5671C8.26707 20.0999 7.72278 20.7103 7.22183 21.3934C5.41984 23.8506 4.30763 27.0727 4.0551 30.5C4.01854 30.9963 4 31.4968 4 32L5.5 32L24.5 32H26C26 31.4968 25.9815 30.9963 25.9449 30.5C25.6924 27.0727 24.5802 23.8506 22.7782 21.3934C22.2772 20.7103 21.7329 20.0999 21.1541 19.5671C20.7828 19.9151 20.3833 20.2303 19.9601 20.5098C20.5283 21.008 21.0683 21.5983 21.5686 22.2804C23.1653 24.4578 24.1909 27.3609 24.4406 30.5L5.55943 30.5C5.80912 27.3609 6.83472 24.4578 8.43143 22.2804C8.93166 21.5983 9.47167 21.008 10.0399 20.5098C9.6167 20.2303 9.21719 19.9151 8.84589 19.5671Z" fill="#A3A3A3"/>
<circle cx="15" cy="13" r="6.25" stroke="#A3A3A3" stroke-width="1.5"/>
</g>
<circle cx="15" cy="15" r="14.25" stroke="#A3A3A3" stroke-width="1.5"/>
</svg>
