<svg width="30" height="30" viewBox="0 0 30 30" fill="none" xmlns="http://www.w3.org/2000/svg">
<path d="M26.1182 14.4727V14.7363C26.1182 14.8242 26.123 14.9121 26.1328 15V15.2637C26.1328 15.3516 26.1279 15.4395 26.1182 15.5273L29.9121 17.8857L27.583 23.4961L23.2324 22.5C22.998 22.7539 22.7539 22.998 22.5 23.2324L23.4961 27.583L17.8857 29.9121L15.5273 26.1182H15.2637C15.1758 26.1182 15.0879 26.123 15 26.1328H14.7363C14.6484 26.1328 14.5605 26.1279 14.4727 26.1182L12.1143 29.9121L6.50391 27.583L7.5 23.2324C7.24609 22.998 7.00195 22.7539 6.76758 22.5L2.41699 23.4961L0.0878906 17.8857L3.88184 15.5273V15.2637C3.88184 15.1758 3.87695 15.0879 3.86719 15V14.7363C3.86719 14.6484 3.87207 14.5605 3.88184 14.4727L0.0878906 12.1143L2.41699 6.50391L6.76758 7.5C7.00195 7.24609 7.24609 7.00195 7.5 6.76758L6.50391 2.41699L12.1143 0.0878906L14.4727 3.88184H14.7363C14.8242 3.88184 14.9121 3.87695 15 3.86719H15.2637C15.3516 3.86719 15.4395 3.87207 15.5273 3.88184L17.8857 0.0878906L23.4961 2.41699L22.5 6.76758C22.7539 7.00195 22.998 7.24609 23.2324 7.5L27.583 6.50391L29.9121 12.1143L26.1182 14.4727ZM24.4043 16.377C24.4238 16.1426 24.4434 15.9131 24.4629 15.6885C24.4824 15.4639 24.4922 15.2295 24.4922 14.9854C24.4922 14.7607 24.4824 14.5312 24.4629 14.2969C24.4434 14.0625 24.4238 13.833 24.4043 13.6084L27.8613 11.4551L26.6016 8.4082L22.6318 9.33105C22.3291 8.95996 22.0215 8.61816 21.709 8.30566C21.3965 7.99316 21.0498 7.68066 20.6689 7.36816L21.5918 3.39844L18.5449 2.13867L16.377 5.5957C16.1523 5.57617 15.9229 5.55664 15.6885 5.53711C15.4541 5.51758 15.2246 5.50781 15 5.50781C14.7656 5.50781 14.5361 5.51758 14.3115 5.53711C14.0869 5.55664 13.8525 5.57617 13.6084 5.5957L11.4551 2.13867L8.4082 3.39844L9.33105 7.36816C8.95996 7.6709 8.61816 7.97852 8.30566 8.29102C7.99316 8.60352 7.68066 8.9502 7.36816 9.33105L3.39844 8.4082L2.13867 11.4551L5.5957 13.623C5.57617 13.8574 5.55664 14.0869 5.53711 14.3115C5.51758 14.5361 5.50781 14.7705 5.50781 15.0146C5.50781 15.2393 5.51758 15.4688 5.53711 15.7031C5.55664 15.9375 5.57617 16.167 5.5957 16.3916L2.13867 18.5449L3.39844 21.5918L7.36816 20.6689C7.6709 21.04 7.97852 21.3818 8.29102 21.6943C8.60352 22.0068 8.9502 22.3193 9.33105 22.6318L8.4082 26.6016L11.4551 27.8613L13.623 24.4043C13.8477 24.4238 14.0771 24.4434 14.3115 24.4629C14.5459 24.4824 14.7754 24.4922 15 24.4922C15.2344 24.4922 15.4639 24.4824 15.6885 24.4629C15.9131 24.4434 16.1475 24.4238 16.3916 24.4043L18.5449 27.8613L21.5918 26.6016L20.6689 22.6318C21.04 22.3291 21.3818 22.0215 21.6943 21.709C22.0068 21.3965 22.3193 21.0498 22.6318 20.6689L26.6016 21.5918L27.8613 18.5449L24.4043 16.377ZM15 9.49219C15.7617 9.49219 16.4746 9.63379 17.1387 9.91699C17.8027 10.2002 18.3887 10.5957 18.8965 11.1035C19.4043 11.6113 19.7949 12.1924 20.0684 12.8467C20.3418 13.501 20.4883 14.2188 20.5078 15C20.5078 15.7617 20.3662 16.4746 20.083 17.1387C19.7998 17.8027 19.4043 18.3887 18.8965 18.8965C18.3887 19.4043 17.8076 19.7949 17.1533 20.0684C16.499 20.3418 15.7812 20.4883 15 20.5078C14.2383 20.5078 13.5254 20.3662 12.8613 20.083C12.1973 19.7998 11.6113 19.4043 11.1035 18.8965C10.5957 18.3887 10.2051 17.8076 9.93164 17.1533C9.6582 16.499 9.51172 15.7812 9.49219 15C9.49219 14.2383 9.63379 13.5254 9.91699 12.8613C10.2002 12.1973 10.5957 11.6113 11.1035 11.1035C11.6113 10.5957 12.1924 10.2051 12.8467 9.93164C13.501 9.6582 14.2188 9.51172 15 9.49219ZM15 18.8672C15.5371 18.8672 16.04 18.7695 16.5088 18.5742C16.9775 18.3789 17.3877 18.1006 17.7393 17.7393C18.0908 17.3779 18.3643 16.9678 18.5596 16.5088C18.7549 16.0498 18.8574 15.5469 18.8672 15C18.8672 14.4629 18.7695 13.96 18.5742 13.4912C18.3789 13.0225 18.1006 12.6123 17.7393 12.2607C17.3779 11.9092 16.9678 11.6357 16.5088 11.4404C16.0498 11.2451 15.5469 11.1426 15 11.1328C14.4629 11.1328 13.96 11.2305 13.4912 11.4258C13.0225 11.6211 12.6123 11.8994 12.2607 12.2607C11.9092 12.6221 11.6357 13.0322 11.4404 13.4912C11.2451 13.9502 11.1426 14.4531 11.1328 15C11.1328 15.5371 11.2305 16.04 11.4258 16.5088C11.6211 16.9775 11.8994 17.3877 12.2607 17.7393C12.6221 18.0908 13.0322 18.3643 13.4912 18.5596C13.9502 18.7549 14.4531 18.8574 15 18.8672Z" fill="#A3A3A3"/>
</svg>
