<svg width="30" height="30" viewBox="0 0 30 30" fill="none" xmlns="http://www.w3.org/2000/svg">
<circle cx="15" cy="15" r="14.25" stroke="#A3A3A3" stroke-width="1.5"/>
<circle cx="19.5" cy="14" r="5.25" stroke="#A3A3A3" stroke-width="1.5"/>
<circle cx="8" cy="15" r="3.25" stroke="#A3A3A3" stroke-width="1.5"/>
<path fill-rule="evenodd" clip-rule="evenodd" d="M8.80217 25.1917C8.64675 25.5265 8.55362 25.8587 8.51765 26.1865C8.50584 26.2919 8.5 26.3964 8.5 26.5C8.5 26.9436 8.60715 27.4059 8.83176 27.871L7.28466 28.0609C7.10211 27.566 7.00784 27.0644 7.00046 26.5639C7.00015 26.5426 7 26.5213 7 26.5C7 26.4809 7.00012 26.4619 7.00037 26.4428C7.01399 25.4139 7.39458 24.3915 8.13014 23.4414C9.25223 21.992 11.1425 20.7854 13.5289 19.9952C15.4661 19.3538 17.6491 19.0136 19.8655 19.0004C19.9103 19.0001 19.9551 19 20 19C20.0429 19 20.0858 19.0001 20.1286 19.0004C20.5553 19.0028 20.983 19.0174 21.41 19.0442C23.4521 19.1728 25.402 19.5779 27.106 20.2196C27.6844 20.4374 28.2345 20.6825 28.7502 20.9533L27.2577 21.8994C25.332 21.0549 22.8811 20.5219 20.1687 20.5007C20.0491 20.4997 19.9295 20.4998 19.8101 20.5008C16.8193 20.5272 14.1475 21.1758 12.1489 22.1777C11.8929 22.306 11.6495 22.4393 11.4191 22.577C10.0626 23.3861 9.21492 24.2955 8.80217 25.1917Z" fill="#A3A3A3"/>
<path fill-rule="evenodd" clip-rule="evenodd" d="M1.69841 19.4302C1.95444 19.2907 2.22507 19.1599 2.50877 19.0385C3.08678 18.7912 3.71906 18.5829 4.3928 18.4192C5.51853 18.1456 6.73021 18.0036 7.95274 18.0001C7.9685 18 7.98426 18 8.00004 18C8.01562 18 8.03118 18 8.04674 18.0001C8.31074 18.0008 8.57516 18.008 8.83925 18.0218C10.3581 18.1008 11.8158 18.393 13.0756 18.8709C13.4934 19.0295 13.8849 19.2067 14.2466 19.4004C14.3295 19.4448 14.4107 19.49 14.4904 19.5361C14.5267 19.5571 14.5626 19.5782 14.5983 19.5996C15.1723 19.9434 15.6588 20.3317 16.0409 20.754L14.3416 21.2287C14.1389 21.077 13.9047 20.9252 13.6355 20.7757C12.2809 20.0231 10.314 19.509 8.05942 19.5001C8.01516 19.4999 7.97093 19.5 7.92672 19.5002C5.77337 19.5107 3.88341 19.982 2.5399 20.6814L0.849609 19.9636C1.07518 19.7997 1.31812 19.6441 1.57677 19.4977C1.61693 19.475 1.65748 19.4525 1.69841 19.4302Z" fill="#A3A3A3"/>
</svg>
